<?xml version="1.0" standalone="no"?><!DOCTYPE svg PUBLIC "-//W3C//DTD SVG 1.1//EN" "http://www.w3.org/Graphics/SVG/1.1/DTD/svg11.dtd"><svg width="16" height="16" viewBox="0 0 16 16" version="1.1" xmlns="http://www.w3.org/2000/svg" xmlns:xlink="http://www.w3.org/1999/xlink"><defs><style type="text/css"><![CDATA[
@font-face { font-family: uxiconfont; src: url("http://t.tbcdn.cn/g/thx/brix/fonts/uxiconfont.eot?#iefix") format("embedded-opentype"), url("http://t.tbcdn.cn/g/thx/brix/fonts/uxiconfont.woff") format("woff"), url("http://t.tbcdn.cn/g/thx/brix/fonts/uxiconfont.ttf") format("truetype"), url("http://t.tbcdn.cn/g/thx/brix/fonts/uxiconfont.svg#svgFontName") format("svg"); }
@font-face { font-family: iconfontcn; src: url("//at.alicdn.com/t/font_1439462503_888041.eot?#iefix") format("embedded-opentype"), url("//at.alicdn.com/t/font_1439462503_888041.woff") format("woff"), url("//at.alicdn.com/t/font_1439462503_888041.ttf") format("truetype"), url("//at.alicdn.com/t/font_1439462503_888041.svg#iconfontcn") format("svg"); }
@font-face { font-family: ifont; src: url("//at.alicdn.com/t/font_1442373896_4754455.eot?#iefix") format("embedded-opentype"), url("//at.alicdn.com/t/font_1442373896_4754455.woff") format("woff"), url("//at.alicdn.com/t/font_1442373896_4754455.ttf") format("truetype"), url("//at.alicdn.com/t/font_1442373896_4754455.svg#ifont") format("svg"); }
@font-face { font-family: fbsdkicon; src: url("http://at.alicdn.com/t/font_1426843862_1455607.eot?#iefix") format("embedded-opentype"), url("http://at.alicdn.com/t/font_1426843862_1455607.woff") format("woff"), url("http://at.alicdn.com/t/font_1426843862_1455607.ttf") format("truetype"), url("http://at.alicdn.com/t/font_1426843862_1455607.svg#iconfont") format("svg"); }

]]></style></defs><g class="transform-group"><g transform="scale(0.015625, 0.015625)"><path d="M512 6.472C233.891 6.472 8.471 231.905 8.471 510c0 278.108 225.42 503.528 503.529 503.528 278.079 0 503.528-225.42 503.528-503.528C1015.529 231.905 790.079 6.472 512 6.472zM650.489 542.395l130.65 130.68c18.387 18.388 18.387 48.457 0 66.815l-37.223 37.222c-18.357 18.388-48.428 18.388-66.815 0l-130.68-130.68c-18.358-18.357-48.398-18.357-66.756 0l-130.71 130.68c-18.358 18.388-48.428 18.388-66.756 0l-37.252-37.222c-18.358-18.358-18.358-48.428 0-66.815l130.68-130.68c18.358-18.358 18.358-48.413 0-66.771l-130.68-130.694c-18.388-18.373-18.388-48.428 0-66.786l37.222-37.236c18.358-18.373 48.428-18.373 66.786 0l130.71 130.694c18.357 18.358 48.397 18.358 66.756 0l130.71-130.694c18.357-18.373 48.428-18.373 66.785 0l37.252 37.236c18.357 18.358 18.357 48.413 0 66.786l-130.68 130.694C632.101 493.981 632.101 524.036 650.489 542.395z" fill="#272636"></path></g></g></svg>