<?xml version="1.0" standalone="no"?><!DOCTYPE svg PUBLIC "-//W3C//DTD SVG 1.1//EN" "http://www.w3.org/Graphics/SVG/1.1/DTD/svg11.dtd"><svg width="200" height="200" viewBox="0 0 200 200" version="1.1" xmlns="http://www.w3.org/2000/svg" xmlns:xlink="http://www.w3.org/1999/xlink"><defs><style type="text/css"><![CDATA[
@font-face { font-family: uxiconfont; src: url("http://t.tbcdn.cn/g/thx/brix/fonts/uxiconfont.eot?#iefix") format("embedded-opentype"), url("http://t.tbcdn.cn/g/thx/brix/fonts/uxiconfont.woff") format("woff"), url("http://t.tbcdn.cn/g/thx/brix/fonts/uxiconfont.ttf") format("truetype"), url("http://t.tbcdn.cn/g/thx/brix/fonts/uxiconfont.svg#svgFontName") format("svg"); }
@font-face { font-family: iconfontcn; src: url("//at.alicdn.com/t/font_1439462503_888041.eot?#iefix") format("embedded-opentype"), url("//at.alicdn.com/t/font_1439462503_888041.woff") format("woff"), url("//at.alicdn.com/t/font_1439462503_888041.ttf") format("truetype"), url("//at.alicdn.com/t/font_1439462503_888041.svg#iconfontcn") format("svg"); }
@font-face { font-family: ifont; src: url("//at.alicdn.com/t/font_1442373896_4754455.eot?#iefix") format("embedded-opentype"), url("//at.alicdn.com/t/font_1442373896_4754455.woff") format("woff"), url("//at.alicdn.com/t/font_1442373896_4754455.ttf") format("truetype"), url("//at.alicdn.com/t/font_1442373896_4754455.svg#ifont") format("svg"); }
@font-face { font-family: fbsdkicon; src: url("http://at.alicdn.com/t/font_1426843862_1455607.eot?#iefix") format("embedded-opentype"), url("http://at.alicdn.com/t/font_1426843862_1455607.woff") format("woff"), url("http://at.alicdn.com/t/font_1426843862_1455607.ttf") format("truetype"), url("http://at.alicdn.com/t/font_1426843862_1455607.svg#iconfont") format("svg"); }

]]></style></defs><g class="transform-group"><g transform="scale(0.1953125, 0.1953125)"><path d="M536.089651 387.370515c0.417509 0 2.808976 0.921999 7.868201 0.921999 17.558911 0 41.944298-10.403954 56.726979-24.166399 12.093433-11.281951 16.384156-23.74889 16.384156-31.683607 0-7.066953-3.061732-9.931187-4.081968-10.864442-4.444219-4.148483-11.391445-4.762467-15.166421-4.762467-12.577456 0-26.580379 6.057973-37.477566 16.197914-20.445658 19.063171-27.523867 47.749514-24.275893 54.378491C536.067138 387.392004 536.078395 387.370515 536.089651 387.370515zM463.657992 333.014536c-10.897188-10.140964-24.901133-16.197914-37.477566-16.197914-3.76372 0-10.722202 0.603751-15.167444 4.76349-1.00898 0.921999-4.081968 3.786233-4.081968 10.842952 0 7.944949 4.313236 20.434401 16.396435 31.705096 14.782681 13.761422 39.156812 24.166399 56.70549 24.166399 6.178723 0 8.373715-1.372254 8.395204-1.38351C491.301586 381.192815 484.245889 352.208691 463.657992 333.014536zM509.782495 62.768579c-246.313895 0-445.99061 199.676715-445.99061 445.99061s199.676715 445.99061 445.99061 445.99061 445.99061-199.676715 445.99061-445.99061S756.097414 62.768579 509.782495 62.768579zM495.538073 734.646869 347.383802 734.646869c-18.108426 0-32.923854-14.81645-32.923854-32.923854L314.459948 586.491575l181.078125 0L495.538073 734.646869zM512 410.829809c-0.267083 0.268106-0.534166 0.535189-0.812505 0.795109-4.272303 3.977591-9.603729 6.703679-15.650445 8.337899l0 133.604904 0 0.001023L314.459948 553.568744 314.459948 438.33628c0-18.108426 14.815427-32.923854 32.923854-32.923854L423.601694 405.412426c-8.553817-4.813632-16.487509-10.475586-23.178909-16.71366-30.56411-28.489868-36.09508-69.556169-12.335956-91.724051 9.976212-9.273201 23.474644-13.761422 38.092573-13.761422 20.247136 0 42.580794 8.659217 60.381206 25.219381 10.29446 9.595542 19.138896 21.921265 25.439392 34.893718 6.30152-12.971429 15.144932-25.296129 25.437345-34.893718 17.789155-16.560164 40.111556-25.219381 60.381206-25.219381 14.59644 0 28.127617 4.488221 38.081317 13.761422 23.781636 22.168905 18.250666 63.22395-12.313443 91.724051-6.695492 6.238075-14.632255 11.900028-23.189142 16.71366l76.217892 0c18.108426 0 32.923854 14.815427 32.923854 32.923854l0 115.231441 0 0L528.461927 553.567721 528.461927 419.961794c-6.040576-1.63422-11.370978-4.359284-15.648398-8.336876C512.534166 411.366022 512.267083 411.097916 512 410.829809zM709.540052 701.723016c0 18.108426-14.81645 32.923854-32.923854 32.923854L528.461927 734.646869 528.461927 586.491575l181.078125 0L709.540052 701.723016z" fill="#56abe4"></path></g></g></svg>