<?xml version="1.0" standalone="no"?><!DOCTYPE svg PUBLIC "-//W3C//DTD SVG 1.1//EN" "http://www.w3.org/Graphics/SVG/1.1/DTD/svg11.dtd"><svg width="16" height="16" viewBox="0 0 16 16" version="1.1" xmlns="http://www.w3.org/2000/svg" xmlns:xlink="http://www.w3.org/1999/xlink"><defs><style type="text/css"><![CDATA[
@font-face { font-family: uxiconfont; src: url("http://t.tbcdn.cn/g/thx/brix/fonts/uxiconfont.eot?#iefix") format("embedded-opentype"), url("http://t.tbcdn.cn/g/thx/brix/fonts/uxiconfont.woff") format("woff"), url("http://t.tbcdn.cn/g/thx/brix/fonts/uxiconfont.ttf") format("truetype"), url("http://t.tbcdn.cn/g/thx/brix/fonts/uxiconfont.svg#svgFontName") format("svg"); }
@font-face { font-family: iconfontcn; src: url("http://at.alicdn.com/t/font_1439462503_888041.eot?#iefix") format("embedded-opentype"), url("http://at.alicdn.com/t/font_1439462503_888041.woff") format("woff"), url("http://at.alicdn.com/t/font_1439462503_888041.ttf") format("truetype"), url("http://at.alicdn.com/t/font_1439462503_888041.svg#iconfontcn") format("svg"); }
@font-face { font-family: ifont; src: url("http://at.alicdn.com/t/font_1442373896_4754455.eot?#iefix") format("embedded-opentype"), url("http://at.alicdn.com/t/font_1442373896_4754455.woff") format("woff"), url("http://at.alicdn.com/t/font_1442373896_4754455.ttf") format("truetype"), url("http://at.alicdn.com/t/font_1442373896_4754455.svg#ifont") format("svg"); }
@font-face { font-family: fbsdkicon; src: url("http://at.alicdn.com/t/font_1426843862_1455607.eot?#iefix") format("embedded-opentype"), url("http://at.alicdn.com/t/font_1426843862_1455607.woff") format("woff"), url("http://at.alicdn.com/t/font_1426843862_1455607.ttf") format("truetype"), url("http://at.alicdn.com/t/font_1426843862_1455607.svg#iconfont") format("svg"); }

]]></style></defs><g class="transform-group"><g transform="scale(0.015625, 0.015625)"><path d="M64 494.784l0 34.432c206.72 344.576 689.28 344.576 896 0L960 494.784C753.28 150.208 270.72 150.208 64 494.784zM512 718.784c-114.24 0-206.72-92.608-206.72-206.784 0-114.24 92.48-206.656 206.72-206.656 114.112 0 206.784 92.416 206.784 206.656C718.784 626.176 626.112 718.784 512 718.784zM512 511.936m-103.36 0a1.615 1.615 0 1 0 206.72 0 1.615 1.615 0 1 0-206.72 0Z" fill="#272636"></path></g></g></svg>