<?xml version="1.0" standalone="no"?><!DOCTYPE svg PUBLIC "-//W3C//DTD SVG 1.1//EN" "http://www.w3.org/Graphics/SVG/1.1/DTD/svg11.dtd"><svg width="200" height="200" viewBox="0 0 200 200" version="1.1" xmlns="http://www.w3.org/2000/svg" xmlns:xlink="http://www.w3.org/1999/xlink"><defs><style type="text/css"><![CDATA[
@font-face { font-family: uxiconfont; src: url("http://t.tbcdn.cn/g/thx/brix/fonts/uxiconfont.eot?#iefix") format("embedded-opentype"), url("http://t.tbcdn.cn/g/thx/brix/fonts/uxiconfont.woff") format("woff"), url("http://t.tbcdn.cn/g/thx/brix/fonts/uxiconfont.ttf") format("truetype"), url("http://t.tbcdn.cn/g/thx/brix/fonts/uxiconfont.svg#svgFontName") format("svg"); }
@font-face { font-family: iconfontcn; src: url("//at.alicdn.com/t/font_1439462503_888041.eot?#iefix") format("embedded-opentype"), url("//at.alicdn.com/t/font_1439462503_888041.woff") format("woff"), url("//at.alicdn.com/t/font_1439462503_888041.ttf") format("truetype"), url("//at.alicdn.com/t/font_1439462503_888041.svg#iconfontcn") format("svg"); }
@font-face { font-family: ifont; src: url("//at.alicdn.com/t/font_1442373896_4754455.eot?#iefix") format("embedded-opentype"), url("//at.alicdn.com/t/font_1442373896_4754455.woff") format("woff"), url("//at.alicdn.com/t/font_1442373896_4754455.ttf") format("truetype"), url("//at.alicdn.com/t/font_1442373896_4754455.svg#ifont") format("svg"); }
@font-face { font-family: fbsdkicon; src: url("http://at.alicdn.com/t/font_1426843862_1455607.eot?#iefix") format("embedded-opentype"), url("http://at.alicdn.com/t/font_1426843862_1455607.woff") format("woff"), url("http://at.alicdn.com/t/font_1426843862_1455607.ttf") format("truetype"), url("http://at.alicdn.com/t/font_1426843862_1455607.svg#iconfont") format("svg"); }

]]></style></defs><g class="transform-group"><g transform="scale(0.1953125, 0.1953125)"><path d="M756.682782 263.761266c-17.90861-48.387034-65.536303-80.896448-118.512018-80.896448-14.508021 0-28.839002 2.447748-42.595885 7.27673l-400.008762 140.387377c-32.014455 11.234879-57.459008 34.046421-71.648767 64.231907-13.751766 29.253254-15.173198 61.98575-4.003342 92.165096l144.166358 389.516388c17.904517 48.381917 65.529139 80.892355 118.507925 80.896448 0.004093 0 0.007163 0 0.011257 0.001023 14.499834 0 28.828769-2.448772 42.586675-7.277754l400.006716-140.382261c32.017525-11.239995 57.467195-34.054607 71.654907-64.241117 13.750743-29.253254 15.172174-61.98268 4.003342-92.15998L756.682782 263.761266zM848.436267 724.262358c-8.21954 17.483186-22.926091 30.685883-41.41494 37.174668L407.013587 901.819287c-7.907419 2.77623-16.149473 4.182252-24.494885 4.182252-30.515248 0-57.979893-18.814508-68.342326-46.819328L170.005924 469.659683c-6.513617-17.597797-5.688798-36.672224 2.320956-53.712319 8.217494-17.48421 22.928138-30.685883 41.419033-37.176714l400.004669-140.387377c7.906396-2.775206 16.146403-4.182252 24.491815-4.182252 30.516272 0 57.98501 18.817578 68.35256 46.826492L850.763363 670.544923C857.27391 688.143743 856.448067 707.219193 848.436267 724.262358zM441.02869 713.738677c-24.791657-11.352559-54.338817-0.986467-65.991693 23.164582-11.657994 24.139793-1.005952 52.91107 23.786728 64.262606 24.79268 11.347442 54.34291 0.981351 65.99681-23.164582C476.474434 753.862513 465.826486 725.08612 441.02869 713.738677zM535.749887 517.556553c-29.802997-13.645788-65.3214-1.178849-79.333096 27.843138-14.011697 29.02301-1.208575 63.60769 28.594422 77.249385 29.802997 13.644765 65.322423 1.177825 79.327979-27.839045C578.349865 565.78702 565.551861 531.201318 535.749887 517.556553zM621.941469 339.04181c-24.79575-11.352559-54.343933-0.986467-66.001927 23.159466-11.652877 24.139793-1.005952 52.916187 23.786728 64.267722 24.79268 11.347442 54.343933 0.981351 66.001927-23.164582C657.38312 379.160529 646.734149 350.389252 621.941469 339.04181zM651.515236 96.098685c0 0 0.636523-0.00921 1.10931-0.00921 11.797169 0 115.991509 2.308579 141.358288 82.32396 2.099912 6.621814 8.322899 11.07115 15.483273 11.07115 1.629172 0 3.253227-0.2415 4.76062-0.695848l0.289608-0.090051c0.174993-0.054235 0.349985-0.107447 0.512698-0.163729 8.103902-2.845815 12.476673-11.32186 9.954117-19.294438-13.414061-42.308595-44.157516-72.558549-91.373822-89.913822-37.675622-13.847379-73.919579-14.549368-80.802626-14.549368-0.821749 0-1.376405 0.00921-1.619962 0.014326-8.947142 0.230244-16.069652 7.396457-15.877262 15.981996C635.491635 89.224114 642.758438 96.098685 651.515236 96.098685zM879.494913 227.601718c0.178063 8.447393 7.447935 15.318894 16.205757 15.318894l0.334635-0.002047c1.781651-0.041956 3.532601-0.358157 5.195544-0.939395 6.534084-2.295276 10.820894-8.337899 10.669438-15.039531-1.243369-57.249889-16.111609-86.288249-17.804229-89.414449-2.772253-5.125741-8.243077-8.308223-14.276744-8.308223-2.628984 0-5.164843 0.594541-7.509336 1.753947-3.830396 1.921769-6.658933 5.186116-7.958586 9.191336-1.276116 3.925403-0.933294 8.108678 0.978322 11.80179C865.861856 153.004743 878.410163 178.079838 879.494913 227.601718z" fill="#56abe4"></path></g></g></svg>