<?xml version="1.0" standalone="no"?><!DOCTYPE svg PUBLIC "-//W3C//DTD SVG 1.1//EN" "http://www.w3.org/Graphics/SVG/1.1/DTD/svg11.dtd"><svg width="200" height="200" viewBox="0 0 200 200" version="1.1" xmlns="http://www.w3.org/2000/svg" xmlns:xlink="http://www.w3.org/1999/xlink"><defs><style type="text/css"><![CDATA[
@font-face { font-family: uxiconfont; src: url("http://t.tbcdn.cn/g/thx/brix/fonts/uxiconfont.eot?#iefix") format("embedded-opentype"), url("http://t.tbcdn.cn/g/thx/brix/fonts/uxiconfont.woff") format("woff"), url("http://t.tbcdn.cn/g/thx/brix/fonts/uxiconfont.ttf") format("truetype"), url("http://t.tbcdn.cn/g/thx/brix/fonts/uxiconfont.svg#svgFontName") format("svg"); }
@font-face { font-family: iconfontcn; src: url("//at.alicdn.com/t/font_1439462503_888041.eot?#iefix") format("embedded-opentype"), url("//at.alicdn.com/t/font_1439462503_888041.woff") format("woff"), url("//at.alicdn.com/t/font_1439462503_888041.ttf") format("truetype"), url("//at.alicdn.com/t/font_1439462503_888041.svg#iconfontcn") format("svg"); }
@font-face { font-family: ifont; src: url("//at.alicdn.com/t/font_1442373896_4754455.eot?#iefix") format("embedded-opentype"), url("//at.alicdn.com/t/font_1442373896_4754455.woff") format("woff"), url("//at.alicdn.com/t/font_1442373896_4754455.ttf") format("truetype"), url("//at.alicdn.com/t/font_1442373896_4754455.svg#ifont") format("svg"); }
@font-face { font-family: fbsdkicon; src: url("http://at.alicdn.com/t/font_1426843862_1455607.eot?#iefix") format("embedded-opentype"), url("http://at.alicdn.com/t/font_1426843862_1455607.woff") format("woff"), url("http://at.alicdn.com/t/font_1426843862_1455607.ttf") format("truetype"), url("http://at.alicdn.com/t/font_1426843862_1455607.svg#iconfont") format("svg"); }

]]></style></defs><g class="transform-group"><g transform="scale(0.1953125, 0.1953125)"><path d="M453.699688 809.315476c-158.453848 0-278.450826-43.037189-356.655979-127.917368-56.066947-60.84988-79.078033-131.998313-88.508823-180.971701-9.768481-50.722218-7.467065-88.011496-7.134491-92.545766 0.056282-7.650237 1.880837-96.863095 55.064107-187.352015C88.535941 165.961846 132.67523 122.482589 187.657472 91.300402c68.316945-38.746466 153.517419-58.392922 253.235538-58.392922 186.789197 0 322.954413 49.427736 404.712485 146.909931 25.051559 29.868261 44.820811 64.284095 58.756195 102.292758 11.113105 30.308283 18.558681 62.946634 22.131043 97.012498 5.122671 48.854685 0.831948 86.135776-0.831948 97.713462l96.723925 165.803233L843.495438 642.639363c-8.964162 12.178367-36.988426 46.823422-88.524173 81.628112-36.610826 24.726148-77.605495 44.419675-121.845069 58.533115C577.975109 800.395316 517.60823 809.315476 453.699688 809.315476zM440.893011 52.874231c-173.962054 0-297.367665 59.5687-366.790804 177.053462C22.109042 317.913607 21.367145 407.398664 21.365098 408.293033l-0.032746 0.807389c-0.029676 0.364297-2.87549 37.753859 6.947226 88.267323 8.999978 46.283116 30.81175 113.464191 83.613326 170.682357 74.27668 80.488149 189.275831 121.30067 341.806783 121.30067 139.327232 0 234.175437-44.065612 289.211914-81.033571 59.673078-40.08188 86.796832-80.730673 87.064938-81.135902l2.958378-4.497431 5.38873-0.01228 149.296281 0-82.83766-142.000108 0.63752-3.605108c0.069585-0.399089 7.042393-41.191144 1.13894-96.573499-5.402033-50.713009-23.045879-124.498502-76.392878-188.014094C752.359788 99.845009 621.388874 52.874231 440.893011 52.874231zM370.426099 455.456193c0 56.250118-45.603641 101.853759-101.854782 101.853759-56.249095 0-101.853759-45.603641-101.853759-101.853759 0-56.249095 45.604664-101.853759 101.853759-101.853759C324.822458 353.602434 370.426099 399.207098 370.426099 455.456193zM606.97663 458.728726c0 39.926338-32.361035 72.285327-72.28635 72.285327-39.925315 0-72.285327-32.358989-72.285327-72.285327 0-39.925315 32.360012-72.28635 72.285327-72.28635C574.615595 386.443399 606.97663 418.804435 606.97663 458.728726zM802.848693 462.021725c0 30.16502-24.465205 54.631248-54.612829 54.631248-30.16502 0-54.632271-24.467251-54.632271-54.631248 0-30.145577 24.467251-54.613852 54.632271-54.613852C778.383488 407.407873 802.848693 431.875125 802.848693 462.021725z" fill="#56abe4"></path></g></g></svg>