<?xml version="1.0" standalone="no"?><!DOCTYPE svg PUBLIC "-//W3C//DTD SVG 1.1//EN" "http://www.w3.org/Graphics/SVG/1.1/DTD/svg11.dtd"><svg xmlns:xlink="http://www.w3.org/1999/xlink" xmlns="http://www.w3.org/2000/svg" version="1.1" width="16" height="16" viewBox="0 0 16 16"><defs><style type="text/css"><![CDATA[
@font-face {
  font-family: "ifont";
  src: url("//at.alicdn.com/t/font_1442373896_4754455.eot?#iefix") format("embedded-opentype"), url("//at.alicdn.com/t/font_1442373896_4754455.woff") format("woff"), url("//at.alicdn.com/t/font_1442373896_4754455.ttf") format("truetype"), url("//at.alicdn.com/t/font_1442373896_4754455.svg#ifont") format("svg");
}

]]></style></defs><g class="transform-group"><g transform="scale(0.015625, 0.015625)"><path d="M919.83872 64.55808 103.939072 64.55808c-21.646336 0-39.360512 17.713152-39.360512 39.315456l0 815.942656c0 21.691392 17.714176 39.40352 39.360512 39.40352l815.899648 0c21.64736 0 39.359488-17.713152 39.359488-39.40352L959.198208 103.873536C959.197184 82.271232 941.485056 64.55808 919.83872 64.55808zM334.495744 588.93824 180.263936 588.93824 180.263936 434.751488l154.232832 0L334.496768 588.93824zM592.868352 588.93824 438.634496 588.93824 438.634496 434.751488 592.868352 434.751488 592.868352 588.93824zM851.241984 588.93824 697.007104 588.93824 697.007104 434.751488l154.233856 0L851.24096 588.93824z" fill="#56abe4"></path></g></g></svg>