<?xml version="1.0" standalone="no"?><!DOCTYPE svg PUBLIC "-//W3C//DTD SVG 1.1//EN" "http://www.w3.org/Graphics/SVG/1.1/DTD/svg11.dtd"><svg width="200" height="200" viewBox="0 0 200 200" version="1.1" xmlns="http://www.w3.org/2000/svg" xmlns:xlink="http://www.w3.org/1999/xlink"><defs><style type="text/css"><![CDATA[
@font-face { font-family: uxiconfont; src: url("http://t.tbcdn.cn/g/thx/brix/fonts/uxiconfont.eot?#iefix") format("embedded-opentype"), url("http://t.tbcdn.cn/g/thx/brix/fonts/uxiconfont.woff") format("woff"), url("http://t.tbcdn.cn/g/thx/brix/fonts/uxiconfont.ttf") format("truetype"), url("http://t.tbcdn.cn/g/thx/brix/fonts/uxiconfont.svg#svgFontName") format("svg"); }
@font-face { font-family: iconfontcn; src: url("//at.alicdn.com/t/font_1439462503_888041.eot?#iefix") format("embedded-opentype"), url("//at.alicdn.com/t/font_1439462503_888041.woff") format("woff"), url("//at.alicdn.com/t/font_1439462503_888041.ttf") format("truetype"), url("//at.alicdn.com/t/font_1439462503_888041.svg#iconfontcn") format("svg"); }
@font-face { font-family: ifont; src: url("//at.alicdn.com/t/font_1442373896_4754455.eot?#iefix") format("embedded-opentype"), url("//at.alicdn.com/t/font_1442373896_4754455.woff") format("woff"), url("//at.alicdn.com/t/font_1442373896_4754455.ttf") format("truetype"), url("//at.alicdn.com/t/font_1442373896_4754455.svg#ifont") format("svg"); }
@font-face { font-family: fbsdkicon; src: url("http://at.alicdn.com/t/font_1426843862_1455607.eot?#iefix") format("embedded-opentype"), url("http://at.alicdn.com/t/font_1426843862_1455607.woff") format("woff"), url("http://at.alicdn.com/t/font_1426843862_1455607.ttf") format("truetype"), url("http://at.alicdn.com/t/font_1426843862_1455607.svg#iconfont") format("svg"); }

]]></style></defs><g class="transform-group"><g transform="scale(0.1953125, 0.1953125)"><path d="M515.287371 766.025531c-142.236492 0-257.9407-115.702162-257.9407-257.939677 0-142.210909 115.704209-257.94377 257.9407-257.94377 142.211932 0 257.9407 115.732861 257.9407 257.94377C773.228071 650.323369 657.49828 766.025531 515.287371 766.025531zM515.287371 212.06793c-163.221432 0-296.015877 132.796492-296.015877 296.017924 0 163.220409 132.794445 296.013831 296.015877 296.013831s296.014854-132.794445 296.014854-296.013831C811.302225 344.864422 678.508803 212.06793 515.287371 212.06793zM688.883081 559.802726c-0.961908-9.260921-5.577019-13.900591-13.930267-13.900591L532.898471 545.902134c0.906649-4.64581 1.400906-7.41897 1.400906-8.378831 0-10.19213-4.669346-16.210193-13.928221-18.079774-9.28548 0.937348-14.422478 6.484691-15.328104 16.70445 0 3.710508-0.932232 6.952342-2.77623 9.754155L363.013269 545.902134c-9.28548 0-13.928221 4.63967-13.928221 13.900591 0 9.311063 4.64274 13.927197 13.928221 13.927197l130.901329 0c-21.369703 35.300994-63.154365 60.823274-125.32431 76.593446-10.219759 2.801812-14.422478 8.819876-12.527314 18.10024 2.77623 8.353248 9.259898 11.619642 19.47761 9.756201 68.706825-17.638729 116.507504-47.805796 143.429667-90.521666 32.500205 47.360657 80.766488 77.994352 144.830573 91.919503 11.151991 1.843998 18.104333-1.397836 20.877493-9.751085 0.935302-9.28548-4.174066-15.329127-15.300474-18.104333-54.804187-10.193153-96.561219-36.205597-125.32738-77.992305l130.87677 0C683.306062 573.729923 687.921173 569.113789 688.883081 559.802726zM509.243725 438.651458c19.48068-12.968359 34.313503-25.962302 44.561915-38.983873l91.892897 0c8.351202 0 10.658757 3.736091 6.974855 11.155061-9.311063 18.570961-22.303982 33.403784-39.006386 44.557822-23.216771-19.503193-39.918151-32.030507-50.134841-37.607526-8.354272-4.64274-14.862499-3.682879-19.48068 2.77623-3.736091 7.441483-2.332115 13.925151 4.176113 19.503193 14.835893 10.217712 28.297486 20.437471 40.384779 30.632671-23.216771 11.149944-52.471049 18.596544-87.744413 22.279423-10.219759 1.892093-14.862499 6.975878-13.930267 15.329127 1.86958 8.348132 7.887644 12.087293 18.105357 11.149944 98.404194-8.375761 158.292166-47.825238 179.636287-118.371968 7.41897-19.506263 1.86958-29.259394-16.70138-29.259394l-90.51962 0c3.707438-7.416923 2.309602-13.900591-4.174066-19.47761-8.353248-5.578042-14.862499-5.080715-19.47761 1.375324-13.931291 23.239284-34.80776 44.586474-62.663178 64.064085-8.354272 6.509251-9.752108 13.459546-4.177136 20.878516C492.513692 444.227454 499.932662 444.227454 509.243725 438.651458zM368.590288 387.140271c18.543332 13.930267 33.403784 26.456558 44.557822 37.582967 6.484691 5.577019 12.993942 5.577019 19.503193 0 4.617158-6.459109 4.177136-12.968359-1.397836-19.478633-8.353248-10.217712-23.682375-23.186072-45.961798-38.983873-6.509251-3.708462-12.527314-2.798742-18.104333 2.77623C362.546641 376.482537 363.013269 382.500601 368.590288 387.140271zM372.764354 504.116449c21.347191-8.351202 46.402843-20.412912 75.191516-36.207643l0 44.558845c0.906649 8.353248 6.018064 12.527314 15.329127 12.527314 9.259898-0.906649 13.926174-5.552459 13.926174-13.928221L477.211171 359.28383c-0.932232-7.416923-5.574972-11.590989-13.926174-12.528338-9.311063 0.937348-14.422478 5.111414-15.329127 12.528338l0 76.594469c-17.635659 11.149944-46.427402 25.052582-86.343507 41.782615-7.443529 3.708462-9.751085 9.751085-6.952342 18.105357C358.369505 504.116449 364.413152 506.890632 372.764354 504.116449zM515.287371 59.380412c247.799736 0 448.705442 200.903659 448.705442 448.705442 0 247.797689-200.905706 448.706465-448.705442 448.706465-247.799736 0-448.705442-200.908776-448.705442-448.706465C66.581929 260.284071 267.487635 59.380412 515.287371 59.380412z" fill="#56abe4"></path></g></g></svg>