<?xml version="1.0" standalone="no"?><!DOCTYPE svg PUBLIC "-//W3C//DTD SVG 1.1//EN" "http://www.w3.org/Graphics/SVG/1.1/DTD/svg11.dtd"><svg width="200" height="200" viewBox="0 0 200 200" version="1.1" xmlns="http://www.w3.org/2000/svg" xmlns:xlink="http://www.w3.org/1999/xlink"><defs><style type="text/css"><![CDATA[
@font-face { font-family: uxiconfont; src: url("http://t.tbcdn.cn/g/thx/brix/fonts/uxiconfont.eot?#iefix") format("embedded-opentype"), url("http://t.tbcdn.cn/g/thx/brix/fonts/uxiconfont.woff") format("woff"), url("http://t.tbcdn.cn/g/thx/brix/fonts/uxiconfont.ttf") format("truetype"), url("http://t.tbcdn.cn/g/thx/brix/fonts/uxiconfont.svg#svgFontName") format("svg"); }
@font-face { font-family: iconfontcn; src: url("//at.alicdn.com/t/font_1439462503_888041.eot?#iefix") format("embedded-opentype"), url("//at.alicdn.com/t/font_1439462503_888041.woff") format("woff"), url("//at.alicdn.com/t/font_1439462503_888041.ttf") format("truetype"), url("//at.alicdn.com/t/font_1439462503_888041.svg#iconfontcn") format("svg"); }
@font-face { font-family: ifont; src: url("//at.alicdn.com/t/font_1442373896_4754455.eot?#iefix") format("embedded-opentype"), url("//at.alicdn.com/t/font_1442373896_4754455.woff") format("woff"), url("//at.alicdn.com/t/font_1442373896_4754455.ttf") format("truetype"), url("//at.alicdn.com/t/font_1442373896_4754455.svg#ifont") format("svg"); }
@font-face { font-family: fbsdkicon; src: url("http://at.alicdn.com/t/font_1426843862_1455607.eot?#iefix") format("embedded-opentype"), url("http://at.alicdn.com/t/font_1426843862_1455607.woff") format("woff"), url("http://at.alicdn.com/t/font_1426843862_1455607.ttf") format("truetype"), url("http://at.alicdn.com/t/font_1426843862_1455607.svg#iconfont") format("svg"); }

]]></style></defs><g class="transform-group"><g transform="scale(0.1953125, 0.1953125)"><path d="M831.488 140.736l-8.256 30.976c20.224 5.312 37.12 18.24 47.616 36.352 10.56 18.176 13.376 39.36 7.872 59.776l30.976 8.256c7.616-28.544 3.648-58.432-11.2-84.032C883.776 166.528 859.968 148.288 831.488 140.736zM153.152 815.744c-10.56-18.112-13.376-39.296-7.872-59.648l-30.976-8.256c-7.616 28.48-3.648 58.368 11.136 83.968 14.784 25.536 38.656 43.712 67.136 51.328l8.256-30.976C180.48 846.784 163.648 833.856 153.152 815.744zM980.608 145.152c-27.456-47.488-71.616-81.344-124.608-95.616l-8.256 30.976c44.672 11.904 81.984 40.576 105.152 80.64 23.04 40 29.184 86.656 17.216 131.264l30.848 8.256C1015.168 247.744 1007.936 192.512 980.608 145.152zM71.232 862.976c-23.104-40.064-29.248-86.656-17.28-131.392l-30.976-8.256c-14.144 52.864-6.848 108.096 20.48 155.584s71.552 81.344 124.48 95.552l8.256-30.976C131.648 931.648 94.336 902.976 71.232 862.976zM708.224 197.76 499.136 141.76C430.848 123.456 360.64 163.968 342.4 232.256l-117.12 437.248c-18.24 68.224 22.272 138.432 90.496 156.736l209.152 56c68.224 18.304 138.496-22.272 156.736-90.496l117.12-437.248C817.024 286.272 776.512 216.064 708.224 197.76zM723.072 407.68 642.56 707.84c-9.216 34.112-44.224 54.4-78.4 45.184l-217.856-58.368c-34.176-9.216-54.464-44.224-45.248-78.464L381.44 316.16c9.216-34.112 44.224-54.4 78.4-45.248l217.984 58.368C711.936 338.496 732.224 373.568 723.072 407.68z" fill="#56abe4"></path></g></g></svg>