<?xml version="1.0" standalone="no"?><!DOCTYPE svg PUBLIC "-//W3C//DTD SVG 1.1//EN" "http://www.w3.org/Graphics/SVG/1.1/DTD/svg11.dtd"><svg width="229.6875" height="200" viewBox="0 0 229.6875 200" version="1.1" xmlns="http://www.w3.org/2000/svg" xmlns:xlink="http://www.w3.org/1999/xlink"><defs><style type="text/css"><![CDATA[
@font-face { font-family: uxiconfont; src: url("http://t.tbcdn.cn/g/thx/brix/fonts/uxiconfont.eot?#iefix") format("embedded-opentype"), url("http://t.tbcdn.cn/g/thx/brix/fonts/uxiconfont.woff") format("woff"), url("http://t.tbcdn.cn/g/thx/brix/fonts/uxiconfont.ttf") format("truetype"), url("http://t.tbcdn.cn/g/thx/brix/fonts/uxiconfont.svg#svgFontName") format("svg"); }
@font-face { font-family: iconfontcn; src: url("//at.alicdn.com/t/font_1439462503_888041.eot?#iefix") format("embedded-opentype"), url("//at.alicdn.com/t/font_1439462503_888041.woff") format("woff"), url("//at.alicdn.com/t/font_1439462503_888041.ttf") format("truetype"), url("//at.alicdn.com/t/font_1439462503_888041.svg#iconfontcn") format("svg"); }
@font-face { font-family: ifont; src: url("//at.alicdn.com/t/font_1442373896_4754455.eot?#iefix") format("embedded-opentype"), url("//at.alicdn.com/t/font_1442373896_4754455.woff") format("woff"), url("//at.alicdn.com/t/font_1442373896_4754455.ttf") format("truetype"), url("//at.alicdn.com/t/font_1442373896_4754455.svg#ifont") format("svg"); }
@font-face { font-family: fbsdkicon; src: url("http://at.alicdn.com/t/font_1426843862_1455607.eot?#iefix") format("embedded-opentype"), url("http://at.alicdn.com/t/font_1426843862_1455607.woff") format("woff"), url("http://at.alicdn.com/t/font_1426843862_1455607.ttf") format("truetype"), url("http://at.alicdn.com/t/font_1426843862_1455607.svg#iconfont") format("svg"); }

]]></style></defs><g class="transform-group"><g transform="scale(0.1953125, 0.1953125)"><path d="M943.609647 269.024123C943.571873 268.816782 943.503038 268.622867 943.401624 268.443288 857.174642 115.753737 690.378999 9.481481 502.518519 9.481481 224.985202 9.481481 0 234.466683 0 512 0 752.890861 169.497922 954.19337 395.736045 1003.149786 430.149632 1010.596655 465.876082 1014.518519 502.518519 1014.518519L502.518519 1014.518519C518.227949 1014.518519 530.962963 1001.783505 530.962963 986.074074 530.962963 970.364644 518.227949 957.62963 502.518519 957.62963 470.340153 957.62963 438.640166 954.228357 407.767931 947.547819 204.429236 903.54669 56.888889 722.799142 56.888889 512 56.888889 265.885544 256.404063 66.37037 502.518519 66.37037 666.554027 66.37037 818.197732 160.291006 895.994216 300.443288 896.105548 300.643878 896.276935 300.797061 896.503618 300.905681 901.658529 308.157762 910.128602 312.888889 919.703704 312.888889 935.413134 312.888889 948.148148 300.153875 948.148148 284.444444 948.148148 278.760941 946.481247 273.466747 943.609647 269.024123L943.609647 269.024123ZM716.354541 849.2577 1039.636366 404.298449C1058.079896 378.91309 1093.737112 373.377839 1119.197393 391.875812L1134.254801 402.815659C1159.751604 421.34016 1165.548999 456.826615 1147.025863 482.321503L823.744057 927.280754 716.354541 849.2577ZM705.208396 864.599059 812.597912 942.622113 682.853528 1008.283895 705.208396 864.599059ZM293.925926 426.666667C330.581276 426.666667 360.296296 396.951647 360.296296 360.296296 360.296296 323.640946 330.581276 293.925926 293.925926 293.925926 257.270575 293.925926 227.555556 323.640946 227.555556 360.296296 227.555556 396.951647 257.270575 426.666667 293.925926 426.666667ZM692.148148 426.666667C728.803499 426.666667 758.518519 396.951647 758.518519 360.296296 758.518519 323.640946 728.803499 293.925926 692.148148 293.925926 655.492798 293.925926 625.777778 323.640946 625.777778 360.296296 625.777778 396.951647 655.492798 426.666667 692.148148 426.666667ZM238.494284 626.93065C272.399208 743.349305 379.462789 824.888889 502.518519 824.888889 625.24598 824.888889 732.095166 743.780674 766.289408 627.795247 772.212527 607.704254 760.727211 586.615656 740.636217 580.692537 720.545242 574.769399 699.456626 586.254734 693.533506 606.345709 668.786764 690.285568 591.38962 749.037037 502.518519 749.037037 413.410152 749.037037 335.85738 689.972888 311.320557 605.721259 305.463732 585.610847 284.413137 574.056012 264.302725 579.912818 244.192313 585.769643 232.637478 606.820238 238.494284 626.93065Z" fill="#56abe4"></path></g></g></svg>