<?xml version="1.0" standalone="no"?><!DOCTYPE svg PUBLIC "-//W3C//DTD SVG 1.1//EN" "http://www.w3.org/Graphics/SVG/1.1/DTD/svg11.dtd"><svg width="200" height="200" viewBox="0 0 200 200" version="1.1" xmlns="http://www.w3.org/2000/svg" xmlns:xlink="http://www.w3.org/1999/xlink"><defs><style type="text/css"><![CDATA[
@font-face { font-family: uxiconfont; src: url("http://t.tbcdn.cn/g/thx/brix/fonts/uxiconfont.eot?#iefix") format("embedded-opentype"), url("http://t.tbcdn.cn/g/thx/brix/fonts/uxiconfont.woff") format("woff"), url("http://t.tbcdn.cn/g/thx/brix/fonts/uxiconfont.ttf") format("truetype"), url("http://t.tbcdn.cn/g/thx/brix/fonts/uxiconfont.svg#svgFontName") format("svg"); }
@font-face { font-family: iconfontcn; src: url("//at.alicdn.com/t/font_1439462503_888041.eot?#iefix") format("embedded-opentype"), url("//at.alicdn.com/t/font_1439462503_888041.woff") format("woff"), url("//at.alicdn.com/t/font_1439462503_888041.ttf") format("truetype"), url("//at.alicdn.com/t/font_1439462503_888041.svg#iconfontcn") format("svg"); }
@font-face { font-family: ifont; src: url("//at.alicdn.com/t/font_1442373896_4754455.eot?#iefix") format("embedded-opentype"), url("//at.alicdn.com/t/font_1442373896_4754455.woff") format("woff"), url("//at.alicdn.com/t/font_1442373896_4754455.ttf") format("truetype"), url("//at.alicdn.com/t/font_1442373896_4754455.svg#ifont") format("svg"); }
@font-face { font-family: fbsdkicon; src: url("http://at.alicdn.com/t/font_1426843862_1455607.eot?#iefix") format("embedded-opentype"), url("http://at.alicdn.com/t/font_1426843862_1455607.woff") format("woff"), url("http://at.alicdn.com/t/font_1426843862_1455607.ttf") format("truetype"), url("http://at.alicdn.com/t/font_1426843862_1455607.svg#iconfont") format("svg"); }

]]></style></defs><g class="transform-group"><g transform="scale(0.1953125, 0.1953125)"><path d="M631.68487 486.078631c44.763506-36.204573 73.642231-92.284823 73.642231-155.311275 0-108.938108-86.032422-197.560518-191.801351-197.560518-105.764835 0-191.797257 88.618317-191.797257 197.560518 0 63.026452 28.9084 119.106702 73.642231 155.311275-117.877711 48.524157-201.50741 167.146834-201.50741 305.668725l0 65.853847c0 18.201547 14.298658 32.92897 31.968086 32.92897l575.396889 0c17.669428 0 31.963992-14.728446 31.963992-32.92897l0-65.853847C833.19535 653.190673 749.592256 534.602787 631.68487 486.078631L631.68487 486.078631zM299.532981 497.52738c0.874927-1.991354 0.874927-4.114714 1.310855-6.172583 0.311085-1.252527 0.656963-2.444679 0.815575-3.76372 0.246617-2.602268 0.094144-5.077645-0.252757-7.618515-0.12382-1.350764 0.188288-2.638083-0.12382-3.987824-0.188288-0.774643-0.716314-1.319042-0.938372-2.093684-0.496304-1.476631-1.181919-2.795673-1.86958-4.177136-1.315972-2.830465-2.7486-5.402033-4.717442-7.68503-0.281409-0.320295-0.623193-0.549515-0.934279-0.86981-2.902096-3.118014-6.244214-5.496178-10.050913-7.202029-34.589796-15.883759-56.941873-51.257407-56.941873-90.226954 0-45.854351 30.154787-85.342714 73.356728-96.04752 17.171078-4.27742 27.721365-22.061458 23.603581-39.748283-4.183276-17.682731-21.511943-28.42233-38.588877-24.307615C212.186633 221.50793 161.895227 287.361777 161.895227 363.731118c0 41.674145 15.390525 80.740906 41.550325 110.450555C120.254851 518.590092 65.998133 607.401814 65.998133 707.890482l0 50.931996c0 18.201547 14.298658 32.92897 31.963992 32.92897 17.670451 0 31.968086-14.728446 31.968086-32.92897l0-50.931996c0-91.067089 59.437717-169.20368 144.724149-191.326537C285.265022 515.0208 294.915823 508.364193 299.532981 497.52738L299.532981 497.52738zM823.48622 474.182696c26.158776-29.710672 41.545208-68.781526 41.545208-110.455671 0-74.373894-48.635697-139.77851-118.278847-159.039179-17.012466-4.695952-34.559097 5.692652-39.181371 23.24747-4.588505 17.58961 5.526877 35.628452 22.574135 40.358173C771.913635 279.83536 801.099351 319.099618 801.099351 363.731118c0 38.969547-22.317285 74.27668-56.876382 90.197278-3.867074 1.736551-7.27366 4.146437-10.205433 7.297197-0.252757 0.290619-0.563842 0.484024-0.815575 0.774643-1.997494 2.28095-3.432169 4.919033-4.77577 7.78122-0.653893 1.379417-1.370207 2.668783-1.839905 4.114714-0.216941 0.737804-0.751107 1.319042-0.934279 2.088568-0.311085 1.349741 0 2.63706-0.128937 3.987824-0.340761 2.539846-0.49528 5.016247-0.246617 7.622608 0.157589 1.314948 0.499373 2.506077 0.810459 3.758604 0.435928 2.056845 0.435928 4.181229 1.309832 6.176676 4.623297 10.832719 14.268982 17.493419 24.879644 19.031449 85.286432 22.12695 144.724149 100.259448 144.724149 191.326537l0 50.937113c0 18.196431 14.298658 32.924877 31.968086 32.924877 17.665335 0 31.963992-14.728446 31.963992-32.924877l0-50.937113C960.932616 607.401814 906.679991 518.590092 823.48622 474.182696L823.48622 474.182696zM823.48622 474.182696" fill="#56abe4"></path></g></g></svg>