<?xml version="1.0" standalone="no"?><!DOCTYPE svg PUBLIC "-//W3C//DTD SVG 1.1//EN" "http://www.w3.org/Graphics/SVG/1.1/DTD/svg11.dtd"><svg width="16" height="16" viewBox="0 0 16 16" version="1.1" xmlns="http://www.w3.org/2000/svg" xmlns:xlink="http://www.w3.org/1999/xlink"><defs><style type="text/css"><![CDATA[
@font-face { font-family: uxiconfont; src: url("http://t.tbcdn.cn/g/thx/brix/fonts/uxiconfont.eot?#iefix") format("embedded-opentype"), url("http://t.tbcdn.cn/g/thx/brix/fonts/uxiconfont.woff") format("woff"), url("http://t.tbcdn.cn/g/thx/brix/fonts/uxiconfont.ttf") format("truetype"), url("http://t.tbcdn.cn/g/thx/brix/fonts/uxiconfont.svg#svgFontName") format("svg"); }
@font-face { font-family: iconfontcn; src: url("http://at.alicdn.com/t/font_1439462503_888041.eot?#iefix") format("embedded-opentype"), url("http://at.alicdn.com/t/font_1439462503_888041.woff") format("woff"), url("http://at.alicdn.com/t/font_1439462503_888041.ttf") format("truetype"), url("http://at.alicdn.com/t/font_1439462503_888041.svg#iconfontcn") format("svg"); }
@font-face { font-family: ifont; src: url("http://at.alicdn.com/t/font_1442373896_4754455.eot?#iefix") format("embedded-opentype"), url("http://at.alicdn.com/t/font_1442373896_4754455.woff") format("woff"), url("http://at.alicdn.com/t/font_1442373896_4754455.ttf") format("truetype"), url("http://at.alicdn.com/t/font_1442373896_4754455.svg#ifont") format("svg"); }
@font-face { font-family: fbsdkicon; src: url("http://at.alicdn.com/t/font_1426843862_1455607.eot?#iefix") format("embedded-opentype"), url("http://at.alicdn.com/t/font_1426843862_1455607.woff") format("woff"), url("http://at.alicdn.com/t/font_1426843862_1455607.ttf") format("truetype"), url("http://at.alicdn.com/t/font_1426843862_1455607.svg#iconfont") format("svg"); }

]]></style></defs><g class="transform-group"><g transform="scale(0.015625, 0.015625)"><path d="M709.872226 0 314.127774 0C140.64003 0 0 140.64003 0 314.127774l0 395.744452c0 173.487743 140.64003 314.127774 314.127774 314.127774l395.744452 0c173.487743 0 314.127774-140.64003 314.127774-314.127774L1024 314.127774C1024 140.64003 883.35997 0 709.872226 0zM785.511681 756.430988c-5.890524 57.426327-42.460023 86.381368-109.699701 86.876434-20.126795 0.488783-56.937544 0.24125-110.436017-0.736316-4.417893-26.016062-8.593279-45.646535-12.516107-58.898958 47.607949 2.450197 87.117684 3.681578 118.534231 3.681578 35.828157 0 55.459887-15.955178 58.898958-47.855482 1.961414-16.685211 3.922828-37.300788 5.890524-61.84422L579.365958 677.654025l0-49.328113 43.437589-62.580535L432.854251 565.745377c-8.593279 146.022924-84.667487 246.145498-228.233932 300.385312-11.291009-17.181533-23.559583-33.866744-36.812006-50.064428 130.802805-47.119166 200.497706-130.555272 209.090985-250.320884l-110.436017 0 0-49.328113 421.127233 0 0 49.328113-42.701273 62.580535 150.928343 0C792.379771 678.389084 788.945726 721.091614 785.511681 756.430988zM844.410639 538.504217c-123.935972-37.789571-225.28867-93.622642-304.065633-167.494186l0 123.320281-55.953696 0L484.39131 368.434183c-74.854136 69.701184-176.20809 129.336457-304.065633 178.905819-14.725054-23.559583-26.262338-40.734833-34.603059-51.537059 114.605121-36.31694 210.069808-84.172422 286.396574-143.566445L171.489891 352.236499l0-49.328113 312.900163 0 0-82.090383c-88.596597 2.702755-180.37845 5.033583-275.353098 6.993741-2.456479-17.670316-5.890524-34.355526-10.307161-50.064428 248.848253-2.945262 450.328551-9.570845 604.450945-19.878006l8.83453 50.064428c-86.876434 4.175386-177.433188 7.856964-271.671521 11.043476l0 83.931172 316.58174 0 0 49.328113L587.096014 352.236499c80.738377 62.338028 177.801346 105.281808 291.181368 128.841391C863.05852 503.659908 851.773794 522.801598 844.410639 538.504217z" fill="#56abe4"></path></g></g></svg>